<svg xmlns="http://www.w3.org/2000/svg" version="1.1" xmlns:xlink="http://www.w3.org/1999/xlink" xmlns:svgjs="http://svgjs.dev/svgjs" width="2000" height="641" viewBox="0 0 2000 641"><g transform="matrix(1,0,0,1,-1.2114237422039196,-0.9198439305482111)"><svg viewBox="0 0 396 127" data-background-color="#000000" preserveAspectRatio="xMidYMid meet" height="641" width="2000" xmlns="http://www.w3.org/2000/svg" xmlns:xlink="http://www.w3.org/1999/xlink"><g id="tight-bounds" transform="matrix(1,0,0,1,0.2398619009563845,0.18224676939098572)"><svg viewBox="0 0 395.52 126.63550646121804" height="126.63550646121804" width="395.52"><g><svg viewBox="0 0 630.21389646574 201.77855976394778" height="126.63550646121804" width="395.52"><g transform="matrix(1,0,0,1,0,73.00390678026746)"><svg viewBox="0 0 395.52 55.77074620341288" height="55.77074620341288" width="395.52"><g id="textblocktransform"><svg viewBox="0 0 395.52 55.77074620341288" height="55.77074620341288" width="395.52" id="textblock"><g><svg viewBox="0 0 395.52 55.77074620341288" height="55.77074620341288" width="395.52"><g transform="matrix(1,0,0,1,0,0)"><svg width="395.52" viewBox="2.0181819052480003 -32.55 233.661818094752 32.949999999999996" height="55.77074620341288" data-palette-color="#89939e"><path d="M25.3-23.4L25.3-23.4Q25.3-20.45 23.95-18.23 22.6-16 20.18-14.78 17.75-13.55 14.55-13.55L14.55-13.55Q14.15-13.55 13.5-13.65 12.85-13.75 12.45-13.95L12.45-13.95Q12.35-14.05 12.05-14.33 11.75-14.6 11.75-15.05L11.75-15.05Q11.75-15.35 12-15.3L12-15.3Q12.4-15.2 12.85-15.08 13.3-14.95 13.85-14.95L13.85-14.95Q16.8-14.95 18.8-16.93 20.8-18.9 20.8-22.55L20.8-22.55Q20.8-26.2 18.8-28.4 16.8-30.6 12.75-30.6L12.75-30.6Q12.3-30.6 11.38-30.55 10.45-30.5 10.3-30.15L10.3-30.15Q10.1-29.7 10.08-28.63 10.05-27.55 10.05-26.45L10.05-26.45 10.05-5.65Q10.05-4.55 10.08-3.6 10.1-2.65 10.3-2.05L10.3-2.05Q10.4-1.8 11.1-1.6 11.8-1.4 12.58-1.33 13.35-1.25 13.65-1.25L13.65-1.25Q13.8-1.05 13.83-0.55 13.85-0.05 13.65 0.15L13.65 0.15Q12.15 0.05 10.78-0.03 9.4-0.1 7.95-0.1L7.95-0.1Q6.55-0.1 5.13-0.03 3.7 0.05 2.2 0.15L2.2 0.15Q2-0.05 2.02-0.55 2.05-1.05 2.2-1.25L2.2-1.25Q2.5-1.25 3.28-1.33 4.05-1.4 4.78-1.6 5.5-1.8 5.55-2.05L5.55-2.05Q5.75-2.65 5.78-3.6 5.8-4.55 5.8-5.65L5.8-5.65 5.8-26.5Q5.8-27.6 5.78-28.58 5.75-29.55 5.55-30.15L5.55-30.15Q5.5-30.45 4.78-30.6 4.05-30.75 3.28-30.83 2.5-30.9 2.2-30.9L2.2-30.9Q2.05-31.1 2.02-31.6 2-32.1 2.2-32.3L2.2-32.3Q3.7-32.25 5.13-32.18 6.55-32.1 7.95-32.1L7.95-32.1Q9.4-32.1 11.08-32.15 12.75-32.2 14.9-32.2L14.9-32.2Q17.5-32.2 19.88-31.18 22.25-30.15 23.78-28.2 25.3-26.25 25.3-23.4ZM41.55-21.35L41.55-21.35Q42.5-21.35 43.35-20.93 44.2-20.5 44.55-19.9L44.55-19.9Q44.65-19.7 44.7-19.35 44.75-19 44.75-18.6L44.75-18.6Q44.75-17.25 44.12-16.65 43.5-16.05 43.1-16.05L43.1-16.05Q42.6-16.05 42.15-16.4 41.7-16.75 41.3-17L41.3-17Q40.95-17.25 40.57-17.43 40.2-17.6 39.5-17.6L39.5-17.6Q38.45-17.6 37.57-16.73 36.7-15.85 36.15-14.8 35.6-13.75 35.6-13.2L35.6-13.2 35.6-5.65Q35.6-4.55 35.62-3.6 35.65-2.65 35.85-2.05L35.85-2.05Q35.95-1.8 36.85-1.6 37.75-1.4 38.75-1.33 39.75-1.25 40.05-1.25L40.05-1.25Q40.2-1.05 40.22-0.55 40.25-0.05 40.05 0.15L40.05 0.15Q38.55 0.05 37-0.03 35.45-0.1 34-0.1L34-0.1Q32.6-0.1 31.3-0.03 30 0.05 28.5 0.15L28.5 0.15Q28.3-0.05 28.32-0.55 28.35-1.05 28.5-1.25L28.5-1.25Q28.8-1.25 29.52-1.33 30.25-1.4 30.9-1.6 31.55-1.8 31.6-2.05L31.6-2.05Q31.8-2.65 31.82-3.6 31.85-4.55 31.85-5.65L31.85-5.65 31.85-14.75Q31.85-15.25 31.82-16.05 31.8-16.85 31.6-17.3L31.6-17.3Q31.45-17.75 30.75-17.93 30.05-18.1 29.35-18.13 28.65-18.15 28.45-18.15L28.45-18.15Q28.4-18.25 28.35-18.75 28.3-19.25 28.45-19.45L28.45-19.45Q30.35-19.7 32.15-20.2 33.95-20.7 35.4-21.5L35.4-21.5Q35.6-21.5 35.77-21.2 35.95-20.9 35.95-20.7L35.95-20.7Q35.95-20.55 35.85-19.55 35.75-18.55 35.67-17.53 35.6-16.5 35.6-16.2L35.6-16.2Q35.6-16.05 35.67-16.05 35.75-16.05 35.8-16.1L35.8-16.1Q36.3-17.15 37.22-18.38 38.15-19.6 39.3-20.48 40.45-21.35 41.55-21.35ZM57.64-21.45L57.64-21.45Q60.89-21.45 63.22-20.05 65.55-18.65 66.82-16.25 68.09-13.85 68.09-10.8L68.09-10.8Q68.09-7.65 66.75-5.13 65.39-2.6 63.05-1.13 60.7 0.35 57.74 0.35L57.74 0.35Q54.55 0.35 52.17-1.07 49.79-2.5 48.52-4.93 47.24-7.35 47.24-10.4L47.24-10.4Q47.24-13.55 48.62-16.05 49.99-18.55 52.34-20 54.7-21.45 57.64-21.45ZM57.09-19.8L57.09-19.8Q55.05-19.8 53.8-18.57 52.55-17.35 51.99-15.43 51.45-13.5 51.45-11.4L51.45-11.4Q51.45-9.05 52.22-6.7 52.99-4.35 54.52-2.8 56.05-1.25 58.24-1.25L58.24-1.25Q60.34-1.25 61.57-2.48 62.8-3.7 63.34-5.65 63.89-7.6 63.89-9.65L63.89-9.65Q63.89-12.05 63.09-14.38 62.3-16.7 60.8-18.25 59.3-19.8 57.09-19.8ZM88.94-32.55L88.94-32.55Q91.34-32.55 93.97-32.35 96.59-32.15 99.29-31.55L99.29-31.55Q99.29-31.55 99.47-30.53 99.64-29.5 99.84-28.13 100.04-26.75 100.22-25.63 100.39-24.5 100.39-24.3L100.39-24.3Q100.44-24.1 100.09-23.9 99.74-23.7 99.34-23.7L99.34-23.7Q98.99-23.7 98.74-23.85L98.74-23.85Q98.64-24.4 98.27-25.55 97.89-26.7 96.92-27.95 95.94-29.2 94.09-30.08 92.24-30.95 89.19-30.95L89.19-30.95Q86.49-30.95 84.29-29.73 82.09-28.5 80.52-26.43 78.94-24.35 78.12-21.83 77.29-19.3 77.29-16.75L77.29-16.75Q77.29-13.9 78.07-11.15 78.84-8.4 80.42-6.18 81.99-3.95 84.37-2.63 86.74-1.3 89.94-1.3L89.94-1.3Q92.19-1.3 93.77-2 95.34-2.7 96.39-3.65L96.39-3.65Q97.84-4.95 98.49-6.55 99.14-8.15 99.39-9.35L99.39-9.35Q100.24-9.45 100.94-8.95L100.94-8.95Q100.94-8.6 100.77-7.55 100.59-6.5 100.34-5.28 100.09-4.05 99.79-3.1 99.49-2.15 99.24-1.9L99.24-1.9Q97.24-0.8 94.69-0.25 92.14 0.3 88.74 0.3L88.74 0.3Q85.14 0.3 82.14-0.98 79.14-2.25 76.97-4.48 74.79-6.7 73.62-9.58 72.44-12.45 72.44-15.7L72.44-15.7Q72.44-19.15 73.67-22.18 74.89-25.2 77.09-27.55 79.29-29.9 82.32-31.23 85.34-32.55 88.94-32.55ZM115.39-21.45L115.39-21.45Q118.64-21.45 120.97-20.05 123.29-18.65 124.57-16.25 125.84-13.85 125.84-10.8L125.84-10.8Q125.84-7.65 124.49-5.13 123.14-2.6 120.79-1.13 118.44 0.35 115.49 0.35L115.49 0.35Q112.29 0.35 109.92-1.07 107.54-2.5 106.27-4.93 104.99-7.35 104.99-10.4L104.99-10.4Q104.99-13.55 106.37-16.05 107.74-18.55 110.09-20 112.44-21.45 115.39-21.45ZM114.84-19.8L114.84-19.8Q112.79-19.8 111.54-18.57 110.29-17.35 109.74-15.43 109.19-13.5 109.19-11.4L109.19-11.4Q109.19-9.05 109.97-6.7 110.74-4.35 112.27-2.8 113.79-1.25 115.99-1.25L115.99-1.25Q118.09-1.25 119.32-2.48 120.54-3.7 121.09-5.65 121.64-7.6 121.64-9.65L121.64-9.65Q121.64-12.05 120.84-14.38 120.04-16.7 118.54-18.25 117.04-19.8 114.84-19.8ZM143.59-21.4L143.59-21.4Q146.24-21.4 147.59-20.3 148.94-19.2 149.41-16.9 149.89-14.6 149.89-11.05L149.89-11.05 149.89-5.65Q149.89-4.55 149.91-3.6 149.94-2.65 150.14-2.05L150.14-2.05Q150.24-1.8 150.86-1.6 151.49-1.4 152.19-1.33 152.89-1.25 153.19-1.25L153.19-1.25Q153.34-1.05 153.36-0.55 153.39-0.05 153.19 0.15L153.19 0.15Q151.69 0.05 150.56-0.03 149.44-0.1 147.99-0.1L147.99-0.1Q146.59-0.1 145.44-0.03 144.29 0.05 142.79 0.15L142.79 0.15Q142.59-0.05 142.61-0.55 142.64-1.05 142.79-1.25L142.79-1.25Q143.09-1.25 143.81-1.33 144.54-1.4 145.19-1.6 145.84-1.8 145.89-2.05L145.89-2.05Q146.09-2.65 146.11-3.6 146.14-4.55 146.14-5.65L146.14-5.65 146.14-10.55Q146.14-13.6 145.74-15.33 145.34-17.05 144.29-17.8 143.24-18.55 141.34-18.55L141.34-18.55Q140.44-18.55 139.36-17.98 138.29-17.4 137.49-16.75 136.69-16.1 136.69-15.85L136.69-15.85 136.69-5.65Q136.69-4.55 136.71-3.6 136.74-2.65 136.94-2.05L136.94-2.05Q137.04-1.8 137.66-1.6 138.29-1.4 138.99-1.33 139.69-1.25 139.99-1.25L139.99-1.25Q140.14-1.05 140.16-0.55 140.19-0.05 139.99 0.15L139.99 0.15Q138.49 0.05 137.36-0.03 136.24-0.1 134.79-0.1L134.79-0.1Q133.39-0.1 132.24-0.03 131.09 0.05 129.59 0.15L129.59 0.15Q129.39-0.05 129.41-0.55 129.44-1.05 129.59-1.25L129.59-1.25Q129.89-1.25 130.61-1.33 131.34-1.4 131.99-1.6 132.64-1.8 132.69-2.05L132.69-2.05Q132.89-2.65 132.91-3.6 132.94-4.55 132.94-5.65L132.94-5.65 132.94-14.55Q132.94-15.05 132.91-15.95 132.89-16.85 132.69-17.3L132.69-17.3Q132.54-17.75 131.84-17.93 131.14-18.1 130.44-18.13 129.74-18.15 129.54-18.15L129.54-18.15Q129.49-18.25 129.44-18.75 129.39-19.25 129.54-19.45L129.54-19.45Q131.44-19.7 133.24-20.2 135.04-20.7 136.49-21.5L136.49-21.5Q136.69-21.5 136.86-21.2 137.04-20.9 137.04-20.7L137.04-20.7Q137.04-20.55 136.96-19.93 136.89-19.3 136.81-18.7 136.74-18.1 136.74-17.9L136.74-17.9Q136.74-17.7 136.84-17.7L136.84-17.7Q136.89-17.7 136.99-17.8L136.99-17.8Q137.49-18.35 138.61-19.2 139.74-20.05 141.09-20.73 142.44-21.4 143.59-21.4ZM169.54-21.4L169.54-21.4Q172.19-21.4 173.54-20.3 174.89-19.2 175.36-16.9 175.84-14.6 175.84-11.05L175.84-11.05 175.84-5.65Q175.84-4.55 175.86-3.6 175.89-2.65 176.09-2.05L176.09-2.05Q176.19-1.8 176.81-1.6 177.44-1.4 178.14-1.33 178.84-1.25 179.14-1.25L179.14-1.25Q179.29-1.05 179.31-0.55 179.34-0.05 179.14 0.15L179.14 0.15Q177.64 0.05 176.51-0.03 175.39-0.1 173.94-0.1L173.94-0.1Q172.54-0.1 171.39-0.03 170.24 0.05 168.74 0.15L168.74 0.15Q168.54-0.05 168.56-0.55 168.59-1.05 168.74-1.25L168.74-1.25Q169.04-1.25 169.76-1.33 170.49-1.4 171.14-1.6 171.79-1.8 171.84-2.05L171.84-2.05Q172.04-2.65 172.06-3.6 172.09-4.55 172.09-5.65L172.09-5.65 172.09-10.55Q172.09-13.6 171.69-15.33 171.29-17.05 170.24-17.8 169.19-18.55 167.29-18.55L167.29-18.55Q166.39-18.55 165.31-17.98 164.24-17.4 163.44-16.75 162.64-16.1 162.64-15.85L162.64-15.85 162.64-5.65Q162.64-4.55 162.66-3.6 162.69-2.65 162.89-2.05L162.89-2.05Q162.99-1.8 163.61-1.6 164.24-1.4 164.94-1.33 165.64-1.25 165.94-1.25L165.94-1.25Q166.09-1.05 166.11-0.55 166.14-0.05 165.94 0.15L165.94 0.15Q164.44 0.05 163.31-0.03 162.19-0.1 160.74-0.1L160.74-0.1Q159.34-0.1 158.19-0.03 157.04 0.05 155.54 0.15L155.54 0.15Q155.34-0.05 155.36-0.55 155.39-1.05 155.54-1.25L155.54-1.25Q155.84-1.25 156.56-1.33 157.29-1.4 157.94-1.6 158.59-1.8 158.64-2.05L158.64-2.05Q158.84-2.65 158.86-3.6 158.89-4.55 158.89-5.65L158.89-5.65 158.89-14.55Q158.89-15.05 158.86-15.95 158.84-16.85 158.64-17.3L158.64-17.3Q158.49-17.75 157.79-17.93 157.09-18.1 156.39-18.13 155.69-18.15 155.49-18.15L155.49-18.15Q155.44-18.25 155.39-18.75 155.34-19.25 155.49-19.45L155.49-19.45Q157.39-19.7 159.19-20.2 160.99-20.7 162.44-21.5L162.44-21.5Q162.64-21.5 162.81-21.2 162.99-20.9 162.99-20.7L162.99-20.7Q162.99-20.55 162.91-19.93 162.84-19.3 162.76-18.7 162.69-18.1 162.69-17.9L162.69-17.9Q162.69-17.7 162.79-17.7L162.79-17.7Q162.84-17.7 162.94-17.8L162.94-17.8Q163.44-18.35 164.56-19.2 165.69-20.05 167.04-20.73 168.39-21.4 169.54-21.4ZM185.13-12.1L185.13-12.1Q185.08-9 186.18-6.9 187.28-4.8 189.13-3.78 190.98-2.75 193.13-2.75L193.13-2.75Q194.48-2.75 195.58-3.23 196.68-3.7 197.43-4.33 198.18-4.95 198.48-5.3L198.48-5.3Q198.53-5.3 198.71-5.13 198.88-4.95 198.88-4.65L198.88-4.65Q198.88-4.25 198.58-3.75L198.58-3.75Q198.13-3.05 197.18-2.08 196.23-1.1 194.78-0.35 193.33 0.4 191.43 0.4L191.43 0.4Q188.58 0.4 186.38-0.95 184.18-2.3 182.93-4.6 181.68-6.9 181.68-9.75L181.68-9.75Q181.68-12.2 182.56-14.33 183.43-16.45 184.86-18.03 186.28-19.6 187.98-20.5 189.68-21.4 191.28-21.4L191.28-21.4Q193.48-21.4 194.91-20.65 196.33-19.9 197.16-18.8 197.98-17.7 198.31-16.6 198.63-15.5 198.63-14.75L198.63-14.75Q198.63-13.7 198.38-13.1 198.13-12.5 197.43-12.45L197.43-12.45Q196.98-12.4 195.66-12.38 194.33-12.35 192.63-12.3 190.93-12.25 189.28-12.2 187.63-12.15 186.48-12.13 185.33-12.1 185.13-12.1ZM185.38-13.9L185.38-13.9 193.33-13.9Q193.78-13.9 194.11-14.15 194.43-14.4 194.48-15.05L194.48-15.05Q194.53-15.65 194.13-16.75 193.73-17.85 192.86-18.75 191.98-19.65 190.48-19.65L190.48-19.65Q188.93-19.65 187.93-18.78 186.93-17.9 186.36-16.78 185.78-15.65 185.56-14.78 185.33-13.9 185.38-13.9ZM219.33-18.85L219.33-18.85Q219.33-17.55 218.73-17.03 218.13-16.5 217.48-16.5L217.48-16.5Q216.68-16.5 215.98-17.2 215.28-17.9 214.63-18.3L214.63-18.3Q213.83-18.85 213.33-19.05 212.83-19.25 211.88-19.25L211.88-19.25Q210.58-19.25 209.31-18.28 208.03-17.3 207.21-15.5 206.38-13.7 206.38-11.1L206.38-11.1Q206.38-6.85 208.68-4.85 210.98-2.85 214.28-2.85L214.28-2.85Q216.33-2.85 217.66-3.8 218.98-4.75 219.48-5.3L219.48-5.3Q219.53-5.3 219.71-5.13 219.88-4.95 219.88-4.65L219.88-4.65Q219.88-4.25 219.58-3.75L219.58-3.75Q219.13-3.05 218.18-2.08 217.23-1.1 215.78-0.35 214.33 0.4 212.43 0.4L212.43 0.4Q209.48 0.4 207.25-1 205.03-2.4 203.81-4.65 202.58-6.9 202.58-9.45L202.58-9.45Q202.58-12.15 203.71-14.33 204.83-16.5 206.61-18.1 208.38-19.7 210.46-20.55 212.53-21.4 214.43-21.4L214.43-21.4Q217.13-21.4 218.83-20.2L218.83-20.2Q218.98-20.05 219.16-19.65 219.33-19.25 219.33-18.85ZM229.13-27.5L229.13-21.1 235.43-21.1Q235.68-21.1 235.68-20.55L235.68-20.55Q235.68-19.8 234.98-19.1L234.98-19.1 229.13-19.1 229.13-6.3Q229.13-2.3 232.38-2.3L232.38-2.3Q233.48-2.3 234.38-2.75 235.28-3.2 235.53-3.4L235.53-3.4Q235.68-3.35 235.68-3.1L235.68-3.1Q235.68-2.55 235.48-2.35L235.48-2.35Q235.13-1.95 234.4-1.3 233.68-0.65 232.68-0.15 231.68 0.35 230.48 0.35L230.48 0.35Q229.23 0.35 228.05-0.1 226.88-0.55 226.13-1.7 225.38-2.85 225.38-4.95L225.38-4.95 225.38-19.1 222.53-19.1Q222.43-19.1 222.38-19.28 222.33-19.45 222.33-19.55L222.33-19.55Q222.33-19.65 222.63-20.03 222.93-20.4 223.25-20.75 223.58-21.1 223.58-21.1L223.58-21.1 225.38-21.1 225.38-24.15Q225.88-24.7 226.55-25.43 227.23-26.15 227.78-26.78 228.33-27.4 228.38-27.45L228.38-27.45Q228.58-27.65 228.85-27.65 229.13-27.65 229.13-27.5L229.13-27.5Z" opacity="1" transform="matrix(1,0,0,1,0,0)" fill="#ffffff" class="wordmark-text-0" data-fill-palette-color="primary" id="text-0"></path></svg></g></svg></g></svg></g></svg></g><g transform="matrix(1,0,0,1,428.4353367017922,0)"><svg viewBox="0 0 201.77855976394778 201.77855976394778" height="201.77855976394778" width="201.77855976394778"><g><svg viewBox="0 0 201.77855976394778 201.77855976394778" height="201.77855976394778" width="201.77855976394778"><g transform="matrix(1,0,0,1,56.09137852077033,53.329617246259716)"><svg viewBox="0 0 89.59580272240713 95.11932527142835" height="95.11932527142835" width="89.59580272240713"><g><svg xmlns="http://www.w3.org/2000/svg" xmlns:xlink="http://www.w3.org/1999/xlink" version="1.1" x="0" y="0" viewBox="18.45302862855121 16.433999214363617 50.86048518935391 53.99600078563639" enable-background="new 0 0 90 90" xml:space="preserve" height="95.11932527142835" width="89.59580272240713" class="icon-dxe-0" data-fill-palette-color="accent" id="dxe-0"><path d="M68.617 46.749A10.8 10.8 0 0 0 62.934 40.657 10.8 10.8 0 0 0 58.428 39.678C56.478 39.678 54.616 40.224 52.99 41.164L43.458 29.238C43.656 28.924 43.838 28.598 43.996 28.255 45.904 24.061 44.046 19.095 39.855 17.187A8.3 8.3 0 0 0 36.397 16.434 8.38 8.38 0 0 0 28.784 21.328C26.875 25.521 28.734 30.486 32.927 32.399 34.024 32.899 35.189 33.152 36.385 33.152A8.35 8.35 0 0 0 41.2 31.601L50.456 43.18A10.8 10.8 0 0 0 48.523 46.046 10.8 10.8 0 0 0 47.769 52.718L33.957 57.747A8.27 8.27 0 0 0 30.278 54.467 8.3 8.3 0 0 0 26.818 53.713 8.38 8.38 0 0 0 19.21 58.606 8.3 8.3 0 0 0 18.987 64.998 8.3 8.3 0 0 0 23.35 69.674C24.448 70.174 25.613 70.43 26.814 70.43A8.38 8.38 0 0 0 34.418 65.535 8.3 8.3 0 0 0 35.069 60.792L48.879 55.763A10.8 10.8 0 0 0 53.914 60.466 10.8 10.8 0 0 0 58.425 61.446C62.681 61.446 66.568 58.943 68.328 55.072A10.8 10.8 0 0 0 68.617 46.749M31.466 64.189A5.13 5.13 0 0 1 26.81 67.185 5.1 5.1 0 0 1 24.69 66.723 5.1 5.1 0 0 1 22.019 63.86 5.07 5.07 0 0 1 22.155 59.947 5.13 5.13 0 0 1 26.814 56.949C27.544 56.949 28.257 57.107 28.929 57.414A5.07 5.07 0 0 1 31.6 60.276 5.08 5.08 0 0 1 31.466 64.189" fill="#ffffff" data-fill-palette-color="accent"></path></svg></g></svg></g><g id="text-0"><path d="M7.957 62.22v0c0.945 0.314 1.698 0.807 2.259 1.479 0.57 0.668 0.923 1.452 1.058 2.354 0.133 0.908 0.03 1.873-0.31 2.894v0c-0.043 0.129-0.114 0.29-0.215 0.485-0.103 0.201-0.208 0.356-0.314 0.463v0c-0.043 0.021-0.125 0.065-0.247 0.132-0.113 0.062-0.244 0.069-0.392 0.019v0c-0.096-0.032-0.122-0.083-0.077-0.154v0c0.075-0.118 0.155-0.241 0.24-0.369 0.088-0.135 0.16-0.289 0.218-0.463v0c0.314-0.945 0.262-1.84-0.155-2.685-0.416-0.852-1.209-1.473-2.378-1.862v0c-1.163-0.387-2.205-0.377-3.126 0.031-0.912 0.403-1.584 1.254-2.015 2.552v0c-0.047 0.141-0.113 0.362-0.199 0.661-0.079 0.302-0.073 0.497 0.019 0.585v0c0.126 0.113 0.359 0.23 0.698 0.35 0.345 0.122 0.691 0.24 1.037 0.356v0l9.976 3.318c0.353 0.118 0.682 0.223 0.986 0.318 0.304 0.094 0.563 0.141 0.778 0.141v0c0.088-0.006 0.201-0.111 0.34-0.315 0.139-0.204 0.263-0.426 0.372-0.669 0.107-0.236 0.176-0.402 0.209-0.498v0c0.079-0.024 0.201-0.015 0.366 0.026 0.163 0.047 0.262 0.112 0.299 0.195v0c-0.192 0.471-0.371 0.922-0.536 1.353-0.171 0.428-0.335 0.877-0.491 1.346v0c-0.147 0.443-0.284 0.897-0.41 1.362-0.132 0.463-0.263 0.94-0.391 1.433v0c-0.079 0.045-0.197 0.034-0.353-0.032-0.159-0.06-0.262-0.123-0.312-0.189v0c0.032-0.096 0.077-0.274 0.134-0.533 0.056-0.253 0.091-0.509 0.106-0.768 0.013-0.253-0.017-0.398-0.09-0.437v0c-0.171-0.128-0.407-0.246-0.707-0.353-0.298-0.113-0.623-0.229-0.977-0.346v0l-9.994-3.325c-0.353-0.118-0.686-0.221-1-0.311-0.317-0.098-0.583-0.147-0.796-0.147v0c-0.101-0.019-0.212 0.079-0.334 0.295-0.13 0.221-0.246 0.45-0.347 0.688-0.109 0.242-0.18 0.411-0.211 0.508v0c-0.079 0.024-0.2 0.012-0.363-0.036-0.165-0.041-0.269-0.104-0.312-0.189v0c0.18-0.475 0.355-0.938 0.526-1.388 0.177-0.448 0.34-0.893 0.487-1.336v0c0.156-0.469 0.316-0.972 0.481-1.51 0.158-0.54 0.352-1.153 0.581-1.841v0c0.278-0.835 0.707-1.578 1.286-2.227 0.58-0.649 1.263-1.114 2.049-1.395 0.786-0.281 1.635-0.27 2.547 0.034z" fill="#ffffff" data-fill-palette-color="accent"></path><path d="M20.666 41.78v0c0.179-0.263 0.409-0.475 0.69-0.637 0.277-0.155 0.533-0.224 0.766-0.204v0c0.075 0.01 0.166 0.039 0.272 0.086 0.108 0.057 0.219 0.124 0.331 0.2v0c0.375 0.255 0.588 0.526 0.638 0.814 0.05 0.288 0.037 0.488-0.039 0.6v0c-0.095 0.14-0.235 0.237-0.419 0.292-0.179 0.059-0.343 0.119-0.492 0.182v0c-0.136 0.055-0.263 0.116-0.382 0.183-0.123 0.072-0.251 0.206-0.384 0.402v0c-0.198 0.291-0.257 0.644-0.178 1.058 0.083 0.408 0.219 0.787 0.407 1.136 0.185 0.355 0.353 0.583 0.504 0.686v0l3.16 2.146c0.308 0.209 0.596 0.4 0.863 0.574 0.271 0.168 0.509 0.28 0.715 0.338v0c0.086 0.018 0.241-0.078 0.465-0.286 0.227-0.214 0.447-0.454 0.659-0.718 0.213-0.265 0.347-0.439 0.405-0.524v0c0.083-0.001 0.196 0.043 0.34 0.133 0.148 0.084 0.228 0.171 0.24 0.261v0c-0.313 0.401-0.625 0.812-0.935 1.232-0.315 0.416-0.61 0.826-0.884 1.229v0c-0.266 0.392-0.512 0.778-0.737 1.157-0.227 0.37-0.469 0.774-0.726 1.214v0c-0.088 0.022-0.201-0.018-0.337-0.119-0.132-0.106-0.213-0.198-0.242-0.275v0c0.057-0.084 0.143-0.234 0.257-0.452 0.115-0.217 0.205-0.434 0.27-0.651 0.07-0.223 0.074-0.363 0.015-0.419v0c-0.13-0.17-0.325-0.347-0.584-0.532-0.256-0.19-0.538-0.39-0.846-0.599v0l-3.806-2.585c-0.14-0.095-0.323-0.211-0.549-0.349-0.228-0.147-0.425-0.236-0.592-0.267v0c-0.15-0.044-0.317 0.014-0.501 0.176-0.178 0.166-0.339 0.343-0.483 0.531-0.135 0.187-0.221 0.308-0.26 0.364v0c-0.039-0.002-0.133-0.045-0.28-0.129-0.151-0.078-0.24-0.159-0.266-0.242v0c0.29-0.572 0.537-1.158 0.739-1.757 0.199-0.594 0.323-1.168 0.373-1.724v0c0.038-0.056 0.116-0.081 0.234-0.074 0.118 0.007 0.205 0.029 0.262 0.067v0c0.045 0.03 0.195 0.153 0.45 0.368 0.261 0.218 0.527 0.436 0.798 0.652 0.27 0.216 0.448 0.353 0.531 0.41v0c0.045 0.03 0.075 0.034 0.09 0.012 0.015-0.022 0.018-0.045 0.009-0.068v0c-0.196-0.338-0.378-0.752-0.544-1.241-0.167-0.49-0.265-0.978-0.294-1.465-0.02-0.488 0.072-0.884 0.277-1.186z" fill="#ffffff" data-fill-palette-color="accent"></path><path d="M36.844 24.466v0c0.83-0.717 1.695-1.151 2.594-1.301 0.9-0.16 1.777-0.072 2.631 0.264 0.855 0.327 1.618 0.879 2.291 1.659v0c0.691 0.799 1.143 1.67 1.358 2.612 0.209 0.947 0.176 1.866-0.101 2.758-0.271 0.888-0.784 1.657-1.537 2.308v0c-0.815 0.704-1.682 1.14-2.602 1.307-0.919 0.158-1.808 0.067-2.666-0.274-0.864-0.337-1.63-0.892-2.298-1.666v0c-0.695-0.805-1.14-1.677-1.335-2.618-0.205-0.942-0.167-1.856 0.114-2.743 0.281-0.887 0.798-1.656 1.551-2.306zM37.173 25.282v0c-0.518 0.447-0.803 0.966-0.855 1.558-0.048 0.587 0.072 1.186 0.358 1.798 0.277 0.611 0.648 1.185 1.113 1.723v0c0.518 0.6 1.136 1.113 1.853 1.54 0.718 0.427 1.439 0.672 2.164 0.734 0.73 0.058 1.377-0.156 1.941-0.643v0c0.533-0.46 0.821-0.982 0.864-1.564 0.043-0.583-0.082-1.182-0.373-1.799-0.286-0.621-0.655-1.193-1.106-1.716v0c-0.527-0.61-1.149-1.123-1.867-1.541-0.718-0.417-1.438-0.66-2.158-0.726-0.725-0.063-1.37 0.149-1.934 0.636z" fill="#ffffff" data-fill-palette-color="accent"></path><path d="M61.635 3.115v0c0.74-0.32 1.53-0.625 2.371-0.915 0.835-0.287 1.712-0.519 2.632-0.696v0c0 0 0.093 0.148 0.28 0.443 0.193 0.293 0.412 0.637 0.657 1.033 0.245 0.396 0.471 0.756 0.678 1.079 0.2 0.327 0.314 0.521 0.34 0.583v0c0.046 0.054 0.026 0.136-0.059 0.247-0.079 0.108-0.18 0.189-0.304 0.242v0c-0.106 0.046-0.208 0.064-0.308 0.056v0c-0.106-0.161-0.292-0.394-0.558-0.699-0.271-0.303-0.643-0.582-1.113-0.836-0.468-0.262-1.045-0.404-1.733-0.423-0.69-0.026-1.507 0.165-2.452 0.574v0c-0.833 0.36-1.509 0.878-2.029 1.553-0.513 0.672-0.874 1.433-1.082 2.283-0.211 0.859-0.276 1.732-0.195 2.618 0.084 0.893 0.297 1.735 0.638 2.524v0c0.382 0.883 0.877 1.694 1.485 2.435 0.605 0.749 1.302 1.363 2.091 1.84 0.783 0.48 1.629 0.764 2.537 0.85 0.911 0.093 1.86-0.074 2.849-0.502v0c0.696-0.301 1.244-0.664 1.643-1.087 0.391-0.427 0.683-0.86 0.877-1.298v0c0.275-0.591 0.408-1.18 0.398-1.766-0.014-0.577-0.061-1.069-0.141-1.477v0c0.248-0.144 0.514-0.185 0.799-0.125v0c0.046 0.106 0.111 0.332 0.194 0.68 0.087 0.354 0.175 0.736 0.264 1.148 0.083 0.414 0.141 0.787 0.175 1.119 0.039 0.33 0.035 0.549-0.014 0.659v0c-0.467 0.608-1.058 1.17-1.772 1.685-0.717 0.509-1.6 0.991-2.651 1.446v0c-1.112 0.481-2.221 0.725-3.325 0.73-1.095 0.009-2.128-0.186-3.098-0.585-0.967-0.393-1.826-0.955-2.577-1.685-0.745-0.733-1.335-1.603-1.771-2.61v0c-0.462-1.069-0.706-2.152-0.73-3.248-0.027-1.102 0.142-2.161 0.508-3.174 0.369-1.023 0.931-1.941 1.686-2.755 0.761-0.816 1.698-1.465 2.81-1.946z" fill="#ffffff" data-fill-palette-color="accent"></path><path d="M92.097 1.299v0c1.091-0.111 2.048 0.029 2.871 0.423 0.829 0.385 1.497 0.96 2.004 1.725 0.513 0.758 0.821 1.649 0.926 2.673v0c0.107 1.051-0.022 2.024-0.387 2.918-0.372 0.896-0.926 1.629-1.665 2.202-0.731 0.571-1.592 0.908-2.582 1.008v0c-1.071 0.109-2.032-0.031-2.881-0.421-0.844-0.397-1.519-0.982-2.027-1.754-0.514-0.771-0.823-1.665-0.927-2.682v0c-0.108-1.058 0.028-2.028 0.408-2.911 0.372-0.889 0.928-1.616 1.666-2.181 0.739-0.565 1.603-0.899 2.594-1zM91.899 2.157v0c-0.68 0.069-1.212 0.331-1.595 0.785-0.376 0.454-0.622 1.013-0.738 1.678-0.123 0.659-0.149 1.343-0.076 2.05v0c0.08 0.788 0.292 1.563 0.635 2.325 0.343 0.761 0.794 1.376 1.351 1.843 0.565 0.467 1.218 0.662 1.959 0.586v0c0.701-0.071 1.235-0.334 1.605-0.786 0.369-0.453 0.611-1.015 0.726-1.687 0.122-0.673 0.148-1.353 0.078-2.04v0c-0.082-0.802-0.297-1.58-0.646-2.334-0.349-0.754-0.799-1.365-1.351-1.832-0.558-0.467-1.208-0.663-1.948-0.588z" fill="#ffffff" data-fill-palette-color="accent"></path><path d="M121.931 3.113v0c0.878 0.169 1.504 0.479 1.879 0.931 0.382 0.453 0.576 1.073 0.583 1.86 0.012 0.795-0.094 1.778-0.32 2.949v0l-0.517 2.683c-0.07 0.366-0.132 0.705-0.186 1.019-0.054 0.314-0.066 0.577-0.038 0.789v0c0.018 0.086 0.123 0.182 0.316 0.289 0.193 0.106 0.404 0.195 0.632 0.266 0.228 0.071 0.391 0.117 0.491 0.136v0c0.04 0.077 0.048 0.199 0.022 0.367-0.025 0.168-0.077 0.275-0.155 0.321v0c-0.492-0.129-0.923-0.24-1.291-0.331-0.367-0.098-0.79-0.194-1.269-0.286v0c-0.459-0.088-0.88-0.156-1.264-0.202-0.39-0.054-0.833-0.112-1.332-0.174v0c-0.055-0.073-0.063-0.191-0.025-0.356 0.039-0.165 0.091-0.276 0.157-0.332v0c0.1 0.019 0.272 0.039 0.517 0.058 0.244 0.02 0.48 0.017 0.705-0.009 0.226-0.025 0.356-0.076 0.391-0.152v0c0.105-0.187 0.191-0.436 0.258-0.747 0.067-0.311 0.136-0.65 0.206-1.016v0l0.469-2.433c0.195-1.011 0.28-1.811 0.256-2.403-0.016-0.596-0.177-1.051-0.482-1.365-0.297-0.319-0.758-0.539-1.383-0.659v0c-0.299-0.058-0.647-0.025-1.044 0.099-0.388 0.118-0.737 0.262-1.044 0.429-0.307 0.162-0.469 0.286-0.486 0.372v0l-0.974 5.057c-0.07 0.366-0.132 0.705-0.186 1.02-0.047 0.315-0.056 0.579-0.028 0.791v0c0.018 0.086 0.123 0.182 0.316 0.288 0.193 0.106 0.404 0.195 0.632 0.267 0.221 0.07 0.381 0.115 0.481 0.134v0c0.04 0.077 0.048 0.199 0.022 0.366-0.025 0.168-0.077 0.275-0.155 0.322v0c-0.486-0.128-0.913-0.238-1.281-0.33-0.367-0.098-0.79-0.194-1.269-0.286v0c-0.465-0.09-0.89-0.158-1.274-0.204-0.383-0.053-0.827-0.111-1.332-0.174v0c-0.055-0.073-0.063-0.191-0.025-0.356 0.045-0.164 0.098-0.274 0.157-0.332v0c0.1 0.019 0.272 0.039 0.517 0.058 0.244 0.02 0.48 0.017 0.705-0.009 0.232-0.024 0.363-0.075 0.391-0.152v0c0.105-0.187 0.191-0.436 0.258-0.747 0.074-0.31 0.145-0.648 0.216-1.013v0l0.851-4.419c0.032-0.166 0.07-0.397 0.113-0.692 0.051-0.3 0.058-0.534 0.021-0.699v0c-0.018-0.155-0.138-0.285-0.36-0.39-0.222-0.098-0.449-0.176-0.679-0.234-0.225-0.05-0.37-0.082-0.437-0.095v0c-0.014-0.037-0.011-0.14 0.008-0.309 0.012-0.17 0.051-0.283 0.117-0.339v0c0.64 0.041 1.276 0.035 1.907-0.016 0.624-0.052 1.201-0.165 1.73-0.338v0c0.066 0.013 0.12 0.075 0.161 0.186 0.041 0.111 0.055 0.2 0.042 0.266v0c-0.01 0.053-0.049 0.18-0.115 0.382-0.066 0.201-0.132 0.399-0.197 0.593-0.058 0.196-0.094 0.327-0.107 0.393v0c-0.013 0.066-0.003 0.103 0.031 0.109v0c0.013 0.003 0.04-0.01 0.079-0.036v0c0.202-0.154 0.516-0.335 0.943-0.543 0.426-0.208 0.884-0.381 1.373-0.521 0.489-0.14 0.923-0.174 1.302-0.101z" fill="#ffffff" data-fill-palette-color="accent"></path><path d="M148.893 13.092v0c0.793 0.413 1.304 0.889 1.535 1.429 0.236 0.543 0.245 1.193 0.026 1.95-0.216 0.766-0.599 1.677-1.149 2.734v0l-1.263 2.423c-0.172 0.33-0.329 0.638-0.469 0.923-0.141 0.285-0.228 0.534-0.263 0.746v0c-0.008 0.088 0.066 0.21 0.221 0.367 0.155 0.157 0.331 0.302 0.529 0.436 0.198 0.134 0.342 0.224 0.432 0.27v0c0.017 0.085-0.011 0.204-0.083 0.358-0.072 0.153-0.152 0.241-0.241 0.264v0c-0.435-0.265-0.816-0.494-1.143-0.687-0.324-0.199-0.702-0.411-1.134-0.637v0c-0.414-0.216-0.799-0.401-1.154-0.555-0.358-0.163-0.767-0.346-1.226-0.548v0c-0.032-0.085-0.006-0.202 0.078-0.348 0.084-0.147 0.166-0.238 0.246-0.273v0c0.09 0.047 0.249 0.115 0.478 0.203 0.229 0.089 0.455 0.153 0.678 0.193 0.223 0.04 0.363 0.029 0.419-0.034v0c0.154-0.149 0.307-0.363 0.46-0.642 0.153-0.279 0.316-0.584 0.488-0.914v0l1.145-2.198c0.476-0.913 0.786-1.656 0.932-2.229 0.155-0.576 0.131-1.058-0.071-1.446-0.193-0.391-0.572-0.733-1.137-1.027v0c-0.27-0.141-0.613-0.209-1.028-0.204-0.406 0.002-0.781 0.04-1.124 0.113-0.34 0.067-0.531 0.14-0.572 0.218v0l-2.379 4.567c-0.172 0.33-0.329 0.638-0.47 0.924-0.135 0.289-0.219 0.538-0.253 0.75v0c-0.008 0.088 0.066 0.21 0.221 0.367 0.155 0.157 0.331 0.302 0.529 0.436 0.192 0.13 0.333 0.219 0.422 0.266v0c0.017 0.085-0.011 0.204-0.083 0.357-0.072 0.153-0.152 0.241-0.24 0.264v0c-0.429-0.262-0.807-0.489-1.134-0.682-0.324-0.199-0.702-0.411-1.134-0.637v0c-0.42-0.219-0.808-0.406-1.163-0.56-0.352-0.16-0.761-0.343-1.227-0.547v0c-0.032-0.085-0.006-0.202 0.079-0.349 0.09-0.144 0.172-0.235 0.245-0.273v0c0.09 0.047 0.249 0.115 0.478 0.204 0.229 0.089 0.455 0.153 0.679 0.193 0.229 0.043 0.369 0.032 0.418-0.034v0c0.154-0.149 0.307-0.363 0.461-0.642 0.159-0.276 0.325-0.579 0.496-0.91v0l2.079-3.99c0.078-0.15 0.18-0.36 0.306-0.631 0.135-0.273 0.208-0.495 0.22-0.664v0c0.027-0.154-0.051-0.313-0.233-0.477-0.185-0.158-0.38-0.297-0.583-0.418-0.201-0.112-0.332-0.184-0.392-0.216v0c-0.002-0.039 0.03-0.137 0.096-0.294 0.06-0.16 0.13-0.257 0.209-0.291v0c0.602 0.222 1.212 0.399 1.831 0.53 0.613 0.128 1.198 0.185 1.756 0.17v0c0.06 0.031 0.094 0.106 0.101 0.224 0.007 0.118-0.005 0.207-0.037 0.268v0c-0.025 0.048-0.098 0.159-0.219 0.332-0.121 0.174-0.24 0.344-0.358 0.512-0.112 0.171-0.183 0.286-0.215 0.346v0c-0.031 0.06-0.032 0.098-0.002 0.114v0c0.012 0.006 0.041 0.002 0.087-0.012v0c0.238-0.09 0.59-0.173 1.058-0.251 0.468-0.077 0.956-0.113 1.465-0.107 0.509 0.005 0.934 0.097 1.276 0.276z" fill="#ffffff" data-fill-palette-color="accent"></path><path d="M164.884 30.051v0c-0.727 0.748-1.197 1.509-1.411 2.282-0.209 0.769-0.204 1.492 0.015 2.17 0.219 0.678 0.593 1.264 1.123 1.759v0c0.331 0.31 0.684 0.533 1.058 0.669 0.383 0.136 0.738 0.212 1.064 0.23 0.331 0.022 0.576 0.024 0.733 0.004v0c0.01 0.009 0.016 0.057 0.019 0.143 0.003 0.086-0.03 0.166-0.1 0.24v0c-0.092 0.099-0.231 0.173-0.416 0.223v0c-0.276 0.067-0.643 0.113-1.102 0.137-0.454 0.02-0.948-0.042-1.48-0.187-0.527-0.15-1.026-0.445-1.496-0.884v0c-0.702-0.657-1.168-1.403-1.397-2.238-0.234-0.84-0.239-1.688-0.014-2.544 0.221-0.851 0.659-1.627 1.316-2.329v0c0.564-0.603 1.2-1.066 1.908-1.387 0.698-0.321 1.406-0.512 2.122-0.574 0.712-0.057 1.38-0.003 2.004 0.162 0.629 0.17 1.141 0.441 1.536 0.811v0c0.539 0.504 0.896 1.014 1.072 1.531 0.18 0.511 0.244 0.998 0.193 1.459-0.052 0.462-0.163 0.863-0.333 1.204-0.175 0.346-0.348 0.611-0.52 0.794v0c-0.24 0.257-0.46 0.432-0.658 0.525-0.203 0.088-0.398 0.059-0.585-0.088v0c-0.118-0.092-0.343-0.288-0.674-0.588-0.336-0.295-0.716-0.632-1.14-1.011-0.434-0.378-0.859-0.752-1.274-1.121-0.419-0.364-0.773-0.676-1.059-0.935-0.287-0.259-0.455-0.411-0.504-0.457zM165.59 29.474v0l2.938 2.747c0.109 0.102 0.233 0.157 0.373 0.167 0.135 0.015 0.286-0.053 0.453-0.202v0c0.149-0.139 0.298-0.389 0.449-0.749 0.155-0.365 0.231-0.758 0.226-1.179-0.014-0.421-0.204-0.803-0.57-1.145v0c-0.381-0.356-0.794-0.543-1.241-0.561-0.451-0.014-0.875 0.053-1.272 0.2-0.398 0.138-0.726 0.29-0.984 0.458-0.258 0.167-0.382 0.255-0.372 0.264z" fill="#ffffff" data-fill-palette-color="accent"></path><path d="M187.438 52.906v0c-0.374 0.232-0.689 0.309-0.946 0.229-0.257-0.08-0.442-0.212-0.556-0.396v0c-0.143-0.23-0.176-0.508-0.1-0.834 0.071-0.323 0.106-0.612 0.107-0.868v0c0.018-0.33 0.011-0.585-0.021-0.765-0.032-0.18-0.132-0.404-0.299-0.674v0c-0.232-0.374-0.602-0.654-1.109-0.842-0.501-0.191-1.084-0.243-1.748-0.158-0.658 0.082-1.362 0.356-2.11 0.82v0c-1.214 0.754-1.905 1.637-2.072 2.651-0.162 1.009 0.052 1.989 0.641 2.938v0c0.364 0.587 0.798 0.983 1.301 1.189 0.506 0.212 0.884 0.339 1.135 0.383v0c0.011 0.017 0.004 0.065-0.019 0.143-0.02 0.084-0.073 0.153-0.159 0.206v0c-0.115 0.071-0.268 0.107-0.46 0.107v0c-0.28-0.001-0.645-0.05-1.095-0.145-0.448-0.105-0.909-0.296-1.385-0.575-0.47-0.282-0.873-0.693-1.209-1.234v0c-0.525-0.846-0.785-1.713-0.779-2.601 0-0.885 0.214-1.703 0.64-2.454 0.43-0.745 1.01-1.345 1.741-1.799v0c0.771-0.479 1.568-0.755 2.391-0.828 0.821-0.064 1.618 0.019 2.391 0.249 0.775 0.22 1.467 0.552 2.076 0.994 0.615 0.439 1.093 0.931 1.432 1.478v0c0.479 0.771 0.698 1.508 0.657 2.211v0c-0.021 0.069-0.073 0.165-0.156 0.288-0.077 0.12-0.173 0.215-0.289 0.287z" fill="#ffffff" data-fill-palette-color="accent"></path><path d="M199.413 70.181l-3.081 0.97 0.955 3.033c0.026 0.084-0.051 0.154-0.231 0.211v0c-0.239 0.075-0.507 0.036-0.805-0.119v0l-0.888-2.819-6.171 1.944c-1.285 0.405-1.763 1.131-1.434 2.177v0c0.11 0.349 0.285 0.645 0.525 0.889 0.234 0.246 0.395 0.397 0.484 0.454v0c0.003 0.056-0.037 0.097-0.12 0.124v0c-0.174 0.055-0.304 0.06-0.389 0.016v0c-0.166-0.076-0.389-0.197-0.669-0.365-0.286-0.165-0.56-0.381-0.821-0.646-0.257-0.274-0.446-0.605-0.569-0.992v0c-0.126-0.4-0.177-0.81-0.153-1.23 0.022-0.426 0.183-0.817 0.482-1.174 0.291-0.361 0.772-0.648 1.444-0.86v0l6.82-2.149-0.43-1.366c-0.01-0.032 0.011-0.067 0.062-0.105 0.054-0.031 0.097-0.052 0.13-0.062v0c0.026-0.008 0.115 0.017 0.269 0.075 0.153 0.058 0.301 0.122 0.443 0.19 0.149 0.067 0.223 0.1 0.223 0.1v0l0.272 0.863 1.463-0.461c0.232 0.104 0.498 0.23 0.8 0.376 0.3 0.14 0.578 0.269 0.835 0.386 0.255 0.111 0.395 0.174 0.421 0.187v0c0.078 0.046 0.131 0.111 0.158 0.195 0.028 0.09 0.02 0.143-0.026 0.157z" fill="#ffffff" data-fill-palette-color="accent"></path><path d="M20.279 135.454v0c-0.944 0.314-1.845 0.375-2.701 0.182-0.856-0.193-1.61-0.613-2.261-1.26-0.651-0.647-1.147-1.484-1.489-2.512v0c-0.043-0.129-0.082-0.301-0.119-0.518-0.038-0.223-0.047-0.409-0.025-0.559v0c0.021-0.043 0.061-0.127 0.119-0.253 0.051-0.124 0.151-0.211 0.299-0.26v0c0.096-0.032 0.149-0.003 0.157 0.087v0c0.011 0.139 0.02 0.286 0.029 0.44 0.011 0.161 0.045 0.328 0.102 0.501v0c0.314 0.944 0.893 1.633 1.737 2.066 0.85 0.431 1.86 0.452 3.029 0.062v0c1.169-0.389 2.001-1.023 2.493-1.9 0.493-0.878 0.523-1.966 0.092-3.264v0c-0.047-0.141-0.129-0.357-0.247-0.645-0.113-0.298-0.235-0.45-0.366-0.457v0c-0.163-0.017-0.419 0.029-0.768 0.138-0.345 0.1-0.694 0.21-1.047 0.327v0l-10.004 3.33c-0.353 0.118-0.679 0.233-0.977 0.346-0.306 0.109-0.545 0.228-0.716 0.357v0c-0.066 0.058-0.094 0.21-0.084 0.456 0.011 0.246 0.044 0.496 0.099 0.748 0.058 0.259 0.103 0.437 0.135 0.533v0c-0.047 0.073-0.15 0.139-0.308 0.2-0.158 0.06-0.277 0.067-0.357 0.022v0c-0.128-0.493-0.255-0.961-0.382-1.404-0.122-0.452-0.26-0.909-0.413-1.372v0c-0.15-0.45-0.313-0.898-0.491-1.346-0.171-0.45-0.353-0.91-0.546-1.381v0c0.036-0.083 0.136-0.149 0.299-0.196 0.163-0.047 0.285-0.056 0.366-0.026v0c0.032 0.096 0.102 0.262 0.209 0.498 0.109 0.242 0.234 0.468 0.375 0.678 0.141 0.21 0.254 0.312 0.338 0.306v0c0.214 0 0.476-0.048 0.787-0.145 0.304-0.094 0.633-0.2 0.986-0.317v0l10.023-3.336c0.353-0.118 0.686-0.232 0.999-0.344 0.306-0.109 0.545-0.228 0.717-0.356v0c0.09-0.051 0.122-0.201 0.096-0.449-0.032-0.246-0.077-0.499-0.135-0.759-0.056-0.253-0.099-0.427-0.131-0.523v0c0.047-0.073 0.15-0.139 0.308-0.199 0.158-0.06 0.281-0.068 0.367-0.026v0c0.141 0.488 0.275 0.965 0.401 1.43 0.133 0.463 0.274 0.919 0.423 1.368v0c0.154 0.463 0.327 0.962 0.52 1.497 0.197 0.527 0.41 1.134 0.638 1.822v0c0.278 0.835 0.377 1.691 0.298 2.567-0.075 0.867-0.343 1.649-0.804 2.344-0.461 0.696-1.15 1.197-2.07 1.502z" fill="#ffffff" data-fill-palette-color="accent"></path><path d="M29.698 153.854v0c0.183 0.269 0.295 0.561 0.337 0.876 0.046 0.321 0.017 0.586-0.086 0.795v0c-0.037 0.066-0.1 0.142-0.19 0.227-0.088 0.076-0.187 0.152-0.299 0.228v0c-0.375 0.255-0.706 0.353-0.992 0.293-0.286-0.059-0.467-0.145-0.543-0.257v0c-0.095-0.14-0.139-0.307-0.132-0.5 0.017-0.192 0.021-0.366 0.013-0.525v0c0.004-0.15-0.005-0.291-0.029-0.422-0.022-0.141-0.099-0.309-0.233-0.505v0c-0.198-0.291-0.504-0.476-0.917-0.555-0.408-0.083-0.812-0.099-1.212-0.049-0.394 0.047-0.667 0.121-0.818 0.224v0l-3.168 2.152c-0.308 0.209-0.592 0.406-0.851 0.59-0.265 0.188-0.463 0.367-0.593 0.538v0c-0.048 0.074-0.015 0.256 0.101 0.546 0.115 0.29 0.257 0.583 0.424 0.878 0.168 0.295 0.28 0.485 0.338 0.569v0c-0.029 0.077-0.112 0.166-0.249 0.267-0.132 0.106-0.243 0.149-0.331 0.127v0c-0.257-0.439-0.526-0.883-0.806-1.332-0.271-0.447-0.543-0.871-0.817-1.274v0c-0.266-0.392-0.534-0.763-0.804-1.112-0.264-0.353-0.553-0.73-0.866-1.13v0c0.012-0.09 0.092-0.177 0.24-0.262 0.144-0.09 0.257-0.134 0.339-0.132v0c0.057 0.084 0.165 0.219 0.325 0.405 0.163 0.192 0.334 0.359 0.512 0.5 0.178 0.141 0.306 0.197 0.384 0.169v0c0.206-0.058 0.445-0.176 0.718-0.353 0.267-0.173 0.555-0.364 0.863-0.574v0l3.815-2.591c0.14-0.095 0.32-0.222 0.54-0.38 0.22-0.158 0.373-0.307 0.458-0.446v0c0.098-0.132 0.105-0.309 0.021-0.53-0.083-0.23-0.188-0.445-0.316-0.645-0.122-0.204-0.202-0.334-0.24-0.389v0c0.017-0.036 0.088-0.105 0.216-0.208 0.129-0.112 0.236-0.165 0.322-0.158v0c0.434 0.483 0.891 0.926 1.37 1.329 0.482 0.409 0.975 0.742 1.476 0.999v0c0.038 0.056 0.03 0.135-0.023 0.237-0.05 0.107-0.103 0.18-0.159 0.218v0c-0.045 0.03-0.217 0.127-0.516 0.289-0.299 0.162-0.599 0.329-0.9 0.501-0.297 0.177-0.488 0.294-0.571 0.352v0c-0.039 0.027-0.053 0.048-0.042 0.065 0.015 0.022 0.034 0.038 0.057 0.047v0c0.388-0.067 0.843-0.085 1.363-0.054 0.517 0.026 1.007 0.114 1.47 0.266 0.462 0.161 0.795 0.393 1.001 0.696z" fill="#ffffff" data-fill-palette-color="accent"></path><path d="M44.044 168.954v0c0.83 0.717 1.388 1.512 1.673 2.384 0.285 0.872 0.325 1.753 0.121 2.642-0.203 0.898-0.641 1.737-1.314 2.515v0c-0.695 0.805-1.493 1.381-2.394 1.731-0.906 0.345-1.823 0.448-2.75 0.309-0.923-0.144-1.761-0.541-2.514-1.191v0c-0.82-0.708-1.375-1.505-1.666-2.392-0.296-0.891-0.34-1.788-0.132-2.691 0.213-0.899 0.655-1.738 1.328-2.517v0c0.695-0.805 1.493-1.377 2.395-1.716 0.902-0.33 1.815-0.423 2.738-0.28 0.918 0.149 1.757 0.551 2.515 1.206zM43.285 169.399v0c-0.523-0.451-1.078-0.658-1.666-0.62-0.593 0.034-1.171 0.237-1.734 0.609-0.568 0.368-1.085 0.821-1.55 1.359v0c-0.518 0.6-0.938 1.288-1.26 2.066-0.318 0.772-0.453 1.524-0.404 2.255 0.044 0.736 0.348 1.348 0.911 1.834v0c0.533 0.46 1.091 0.669 1.674 0.627 0.592-0.043 1.172-0.254 1.74-0.632 0.568-0.378 1.077-0.828 1.528-1.35v0c0.531-0.615 0.954-1.306 1.268-2.073 0.308-0.772 0.443-1.523 0.404-2.255-0.044-0.727-0.347-1.333-0.911-1.82z" fill="#ffffff" data-fill-palette-color="accent"></path><path d="M70.472 178.219v0c0.746 0.323 1.512 0.691 2.299 1.105 0.787 0.414 1.56 0.896 2.319 1.445v0c0 0-0.041 0.171-0.122 0.512-0.087 0.338-0.193 0.736-0.316 1.192-0.121 0.45-0.23 0.864-0.327 1.241-0.095 0.372-0.155 0.589-0.182 0.652v0c-0.014 0.068-0.088 0.11-0.22 0.126-0.139 0.014-0.27-0.006-0.395-0.06v0c-0.106-0.046-0.188-0.111-0.247-0.196v0c0.042-0.181 0.084-0.476 0.128-0.885 0.035-0.405-0.016-0.867-0.154-1.383-0.129-0.521-0.423-1.043-0.883-1.566-0.456-0.515-1.157-0.976-2.102-1.385v0c-0.839-0.363-1.682-0.503-2.53-0.419-0.841 0.086-1.647 0.346-2.418 0.78-0.762 0.43-1.442 0.981-2.042 1.651-0.594 0.673-1.061 1.404-1.402 2.193v0c-0.382 0.883-0.637 1.805-0.766 2.768-0.126 0.956-0.096 1.884 0.091 2.784 0.193 0.902 0.567 1.717 1.123 2.444 0.562 0.73 1.337 1.309 2.325 1.736v0c0.702 0.304 1.343 0.452 1.922 0.444 0.585-0.005 1.102-0.084 1.552-0.236v0c0.628-0.208 1.15-0.517 1.564-0.928 0.414-0.411 0.741-0.783 0.98-1.115v0c0.274 0.082 0.488 0.244 0.641 0.488v0c-0.048 0.112-0.17 0.317-0.366 0.616-0.192 0.308-0.411 0.634-0.656 0.978-0.239 0.347-0.468 0.646-0.687 0.898-0.222 0.258-0.39 0.407-0.503 0.447v0c-0.763 0.076-1.58 0.029-2.451-0.142-0.862-0.174-1.821-0.489-2.878-0.946v0c-1.113-0.481-2.049-1.122-2.809-1.923-0.757-0.792-1.325-1.68-1.703-2.663-0.379-0.983-0.555-2-0.529-3.05 0.018-1.047 0.244-2.074 0.68-3.082v0c0.462-1.069 1.086-1.991 1.871-2.765 0.785-0.775 1.678-1.381 2.679-1.818 0.998-0.431 2.055-0.649 3.171-0.654 1.116-0.004 2.23 0.234 3.343 0.716z" fill="#ffffff" data-fill-palette-color="accent"></path><path d="M93.229 189.497v0c1.091 0.111 2.004 0.442 2.738 0.993 0.733 0.551 1.272 1.249 1.614 2.094 0.349 0.852 0.471 1.79 0.367 2.815v0c-0.108 1.058-0.43 1.988-0.969 2.791-0.545 0.802-1.236 1.412-2.075 1.83-0.838 0.412-1.753 0.567-2.743 0.466v0c-1.078-0.11-1.99-0.444-2.736-1.003-0.753-0.56-1.304-1.269-1.652-2.129-0.341-0.858-0.46-1.8-0.355-2.824v0c0.108-1.058 0.434-1.984 0.977-2.779 0.55-0.788 1.244-1.388 2.082-1.8 0.838-0.405 1.755-0.556 2.752-0.454zM92.862 190.296v0c-0.687-0.07-1.26 0.079-1.72 0.448-0.466 0.368-0.823 0.866-1.071 1.494-0.255 0.628-0.418 1.295-0.49 2.002v0c-0.08 0.788-0.03 1.593 0.152 2.415 0.182 0.815 0.503 1.508 0.963 2.079 0.458 0.578 1.058 0.904 1.799 0.98v0c0.701 0.071 1.277-0.078 1.73-0.447 0.46-0.375 0.815-0.88 1.063-1.515 0.248-0.635 0.408-1.296 0.478-1.983v0c0.082-0.808 0.032-1.617-0.151-2.425-0.19-0.809-0.511-1.502-0.963-2.079-0.452-0.57-1.049-0.893-1.79-0.969z" fill="#ffffff" data-fill-palette-color="accent"></path><path d="M119.88 187.859v0c0.878-0.169 1.575-0.114 2.091 0.166 0.523 0.279 0.934 0.785 1.234 1.52 0.307 0.734 0.574 1.689 0.801 2.866v0l0.517 2.683c0.07 0.366 0.139 0.704 0.206 1.016 0.075 0.317 0.165 0.568 0.27 0.755v0c0.049 0.073 0.182 0.123 0.401 0.15 0.219 0.027 0.447 0.031 0.686 0.013 0.238-0.018 0.407-0.037 0.506-0.056v0c0.059 0.058 0.108 0.169 0.147 0.333 0.045 0.164 0.041 0.282-0.014 0.355v0c-0.505 0.063-0.946 0.12-1.322 0.172-0.377 0.045-0.809 0.115-1.295 0.208v0c-0.465 0.09-0.885 0.184-1.259 0.284-0.375 0.093-0.809 0.204-1.301 0.333v0c-0.078-0.047-0.13-0.154-0.155-0.321-0.025-0.168-0.018-0.29 0.022-0.367v0c0.1-0.019 0.267-0.065 0.501-0.138 0.234-0.073 0.455-0.163 0.662-0.272 0.2-0.108 0.302-0.203 0.307-0.287v0c0.028-0.212 0.015-0.479-0.041-0.799-0.054-0.314-0.116-0.654-0.186-1.019v0l-0.469-2.434c-0.196-1.017-0.416-1.799-0.659-2.345-0.243-0.546-0.561-0.909-0.954-1.088-0.4-0.178-0.912-0.207-1.538-0.087v0c-0.299 0.058-0.61 0.214-0.933 0.47-0.322 0.262-0.595 0.525-0.821 0.789-0.217 0.269-0.318 0.444-0.302 0.524v0l0.979 5.076c0.07 0.366 0.139 0.704 0.206 1.016 0.068 0.318 0.155 0.57 0.259 0.757v0c0.049 0.073 0.182 0.123 0.402 0.15 0.219 0.027 0.447 0.031 0.685 0.013 0.238-0.018 0.407-0.037 0.506-0.057v0c0.066 0.056 0.118 0.167 0.157 0.332 0.039 0.165 0.031 0.284-0.024 0.357v0c-0.505 0.063-0.946 0.12-1.322 0.172-0.377 0.045-0.806 0.114-1.284 0.206v0c-0.465 0.09-0.885 0.184-1.259 0.284-0.382 0.094-0.819 0.206-1.312 0.335v0c-0.078-0.047-0.126-0.155-0.145-0.323-0.025-0.168-0.021-0.289 0.013-0.365v0c0.1-0.019 0.267-0.065 0.501-0.138 0.241-0.074 0.461-0.165 0.661-0.272 0.2-0.108 0.302-0.203 0.307-0.287v0c0.028-0.212 0.015-0.479-0.04-0.799-0.054-0.314-0.116-0.654-0.187-1.019v0l-0.853-4.429c-0.032-0.166-0.08-0.398-0.145-0.696-0.064-0.298-0.144-0.514-0.238-0.647v0c-0.083-0.143-0.242-0.219-0.479-0.228-0.244-0.015-0.483-0.003-0.717 0.034-0.235 0.032-0.386 0.054-0.453 0.067v0c-0.026-0.029-0.062-0.123-0.105-0.28-0.052-0.162-0.058-0.282-0.018-0.358v0c0.615-0.208 1.202-0.452 1.762-0.733 0.566-0.282 1.067-0.602 1.501-0.962v0c0.066-0.013 0.136 0.026 0.209 0.115 0.079 0.088 0.125 0.166 0.137 0.232v0c0.01 0.053 0.022 0.185 0.035 0.397 0.02 0.21 0.036 0.417 0.048 0.622 0.012 0.205 0.024 0.34 0.037 0.406v0c0.013 0.066 0.036 0.097 0.069 0.091v0c0.02-0.004 0.043-0.026 0.07-0.066v0c0.124-0.217 0.348-0.502 0.673-0.854 0.319-0.351 0.679-0.683 1.081-0.994 0.402-0.312 0.796-0.505 1.182-0.579z" fill="#ffffff" data-fill-palette-color="accent"></path><path d="M143.849 178.916v0c0.793-0.413 1.476-0.559 2.05-0.439 0.58 0.117 1.12 0.486 1.618 1.104 0.504 0.616 1.033 1.455 1.587 2.518v0l1.262 2.423c0.172 0.33 0.335 0.635 0.488 0.914 0.162 0.282 0.32 0.497 0.474 0.647v0c0.068 0.056 0.21 0.066 0.428 0.029 0.217-0.037 0.438-0.098 0.66-0.184 0.223-0.086 0.379-0.152 0.469-0.199v0c0.073 0.038 0.152 0.131 0.237 0.278 0.09 0.144 0.119 0.258 0.087 0.344v0c-0.466 0.205-0.872 0.386-1.217 0.543-0.349 0.151-0.742 0.341-1.181 0.569v0c-0.42 0.219-0.795 0.43-1.125 0.632-0.333 0.196-0.717 0.427-1.152 0.692v0c-0.088-0.023-0.168-0.111-0.241-0.264-0.072-0.153-0.1-0.272-0.083-0.358v0c0.09-0.047 0.237-0.139 0.441-0.275 0.204-0.137 0.389-0.287 0.556-0.45 0.161-0.16 0.232-0.281 0.212-0.362v0c-0.034-0.211-0.123-0.463-0.267-0.755-0.141-0.285-0.298-0.593-0.47-0.923v0l-1.145-2.198c-0.479-0.919-0.913-1.605-1.302-2.059-0.389-0.454-0.798-0.711-1.226-0.77-0.434-0.056-0.933 0.063-1.498 0.357v0c-0.27 0.141-0.524 0.38-0.76 0.717-0.234 0.343-0.42 0.673-0.561 0.99-0.131 0.32-0.178 0.516-0.14 0.589v0l2.389 4.585c0.172 0.33 0.335 0.635 0.488 0.914 0.156 0.285 0.311 0.502 0.465 0.651v0c0.068 0.056 0.21 0.066 0.428 0.029 0.217-0.037 0.438-0.098 0.66-0.184 0.223-0.086 0.379-0.152 0.469-0.198v0c0.079 0.035 0.161 0.126 0.245 0.273 0.084 0.147 0.11 0.263 0.079 0.348v0c-0.466 0.205-0.872 0.386-1.218 0.543-0.349 0.151-0.739 0.339-1.171 0.565v0c-0.42 0.219-0.795 0.43-1.126 0.632-0.339 0.2-0.726 0.432-1.16 0.696v0c-0.088-0.023-0.165-0.112-0.232-0.268-0.072-0.153-0.103-0.271-0.092-0.353v0c0.09-0.047 0.237-0.139 0.441-0.276 0.21-0.14 0.395-0.29 0.555-0.45 0.161-0.16 0.232-0.281 0.212-0.362v0c-0.034-0.211-0.123-0.463-0.267-0.754-0.141-0.285-0.298-0.593-0.469-0.924v0l-2.084-3.999c-0.078-0.15-0.191-0.359-0.338-0.626-0.147-0.267-0.285-0.451-0.414-0.552v0c-0.12-0.113-0.295-0.14-0.523-0.082-0.238 0.055-0.464 0.135-0.678 0.238-0.216 0.098-0.355 0.162-0.415 0.193v0c-0.034-0.021-0.094-0.1-0.181-0.237-0.096-0.141-0.136-0.254-0.119-0.339v0c0.53-0.375 1.023-0.777 1.479-1.206 0.462-0.432 0.85-0.882 1.163-1.351v0c0.06-0.031 0.138-0.014 0.233 0.051 0.101 0.062 0.167 0.123 0.198 0.183v0c0.025 0.048 0.074 0.171 0.147 0.37 0.079 0.196 0.153 0.39 0.224 0.582 0.07 0.193 0.12 0.319 0.151 0.379v0c0.031 0.06 0.062 0.082 0.092 0.067v0c0.018-0.009 0.034-0.037 0.049-0.083v0c0.057-0.243 0.19-0.58 0.401-1.01 0.205-0.427 0.455-0.848 0.751-1.262 0.296-0.414 0.618-0.712 0.967-0.893z" fill="#ffffff" data-fill-palette-color="accent"></path><path d="M163.822 170.565v0c0.707 0.776 1.439 1.296 2.197 1.562 0.758 0.265 1.482 0.311 2.173 0.138 0.691-0.173 1.304-0.51 1.837-1.009v0c0.331-0.31 0.578-0.651 0.739-1.025 0.161-0.373 0.261-0.722 0.301-1.046 0.045-0.329 0.062-0.568 0.053-0.717v0c0.015-0.014 0.063-0.022 0.145-0.024 0.081 0.008 0.156 0.048 0.225 0.123v0c0.092 0.099 0.159 0.245 0.201 0.438v0c0.053 0.275 0.074 0.64 0.064 1.094-0.011 0.464-0.106 0.957-0.287 1.478-0.185 0.516-0.512 0.994-0.982 1.433v0c-0.702 0.657-1.481 1.074-2.335 1.251-0.859 0.172-1.707 0.118-2.545-0.164-0.839-0.273-1.587-0.76-2.244-1.463v0c-0.569-0.608-0.99-1.277-1.262-2.004-0.273-0.728-0.414-1.449-0.423-2.163-0.014-0.719 0.085-1.387 0.297-2.002 0.207-0.611 0.509-1.102 0.905-1.472v0c0.544-0.509 1.08-0.833 1.606-0.974 0.522-0.145 1.012-0.177 1.47-0.094 0.462 0.078 0.86 0.216 1.193 0.414 0.334 0.198 0.586 0.389 0.757 0.571v0c0.24 0.257 0.398 0.49 0.472 0.699 0.079 0.204 0.039 0.394-0.119 0.571v0c-0.1 0.112-0.308 0.325-0.626 0.64-0.327 0.315-0.693 0.671-1.099 1.07-0.407 0.408-0.81 0.809-1.212 1.202-0.392 0.394-0.726 0.725-1.003 0.994-0.282 0.273-0.448 0.433-0.498 0.48zM163.294 169.808v0l2.946-2.755c0.109-0.102 0.175-0.219 0.198-0.352 0.024-0.133-0.033-0.289-0.171-0.466v0c-0.129-0.158-0.37-0.326-0.723-0.506-0.353-0.18-0.738-0.279-1.154-0.297-0.426-0.019-0.824 0.145-1.195 0.491v0c-0.381 0.356-0.596 0.756-0.644 1.201-0.044 0.449-0.005 0.877 0.115 1.283 0.116 0.411 0.248 0.751 0.397 1.019 0.14 0.268 0.217 0.395 0.231 0.382z" fill="#ffffff" data-fill-palette-color="accent"></path><path d="M180.328 144.413v0c0.368 0.229 0.578 0.475 0.63 0.738 0.042 0.265 0.005 0.493-0.113 0.683v0c-0.143 0.23-0.378 0.383-0.704 0.459-0.326 0.076-0.604 0.171-0.834 0.284v0c-0.298 0.134-0.521 0.254-0.668 0.362-0.147 0.108-0.304 0.297-0.472 0.568v0c-0.232 0.374-0.325 0.831-0.277 1.37 0.057 0.537 0.271 1.085 0.642 1.642 0.362 0.56 0.917 1.072 1.664 1.537v0c1.219 0.757 2.322 0.984 3.309 0.679 0.986-0.304 1.774-0.931 2.363-1.879v0c0.364-0.587 0.527-1.156 0.487-1.707-0.035-0.548-0.085-0.942-0.151-1.182v0c0.007-0.012 0.05-0.029 0.128-0.052 0.084-0.02 0.169-0.003 0.255 0.051v0c0.115 0.071 0.218 0.195 0.308 0.37v0c0.123 0.252 0.236 0.601 0.341 1.049 0.114 0.445 0.15 0.946 0.108 1.502-0.044 0.546-0.236 1.093-0.576 1.639v0c-0.525 0.846-1.188 1.463-1.987 1.851-0.799 0.388-1.63 0.558-2.492 0.509-0.862-0.049-1.659-0.301-2.389-0.755v0c-0.777-0.482-1.378-1.079-1.806-1.791-0.421-0.708-0.703-1.461-0.845-2.259-0.146-0.792-0.154-1.562-0.023-2.31 0.121-0.746 0.351-1.392 0.69-1.939v0c0.482-0.777 1.048-1.302 1.697-1.577v0c0.071-0.012 0.18-0.008 0.327 0.012 0.144 0.025 0.273 0.074 0.388 0.146z" fill="#ffffff" data-fill-palette-color="accent"></path><path d="M183.072 126.425l3.09 0.974 0.959-3.042c0.026-0.084 0.13-0.097 0.311-0.04v0c0.239 0.075 0.436 0.262 0.59 0.559v0l-0.891 2.829 6.19 1.951c1.285 0.405 2.093 0.085 2.423-0.962v0c0.112-0.355 0.143-0.701 0.092-1.036-0.057-0.337-0.105-0.555-0.146-0.652v0c0.036-0.046 0.092-0.056 0.17-0.032v0c0.181 0.057 0.293 0.128 0.338 0.213v0c0.095 0.151 0.207 0.378 0.338 0.682 0.14 0.3 0.24 0.636 0.3 1.01 0.053 0.372 0.02 0.748-0.101 1.129v0c-0.128 0.407-0.322 0.775-0.582 1.105-0.262 0.336-0.619 0.568-1.072 0.696-0.443 0.123-1.004 0.077-1.682-0.137v0l-6.839-2.156-0.434 1.376c-0.01 0.032-0.047 0.049-0.112 0.05-0.056-0.003-0.1-0.01-0.132-0.021v0c-0.032-0.01-0.095-0.083-0.186-0.218-0.092-0.136-0.177-0.272-0.254-0.41-0.084-0.14-0.126-0.21-0.126-0.21v0l0.275-0.872-1.473-0.464c-0.123-0.216-0.27-0.472-0.439-0.767-0.165-0.286-0.32-0.552-0.463-0.796-0.145-0.237-0.224-0.369-0.238-0.394v0c-0.044-0.085-0.053-0.169-0.027-0.254 0.029-0.09 0.069-0.127 0.121-0.111z" fill="#ffffff" data-fill-palette-color="accent"></path><path d="M0.654 100.871c0-3.469 2.813-6.282 6.281-6.282 3.469 0 6.282 2.813 6.282 6.282 0 3.469-2.813 6.282-6.282 6.282-3.469 0-6.282-2.813-6.281-6.282z" fill="#ffffff" data-fill-palette-color="accent"></path><path d="M189.215 100.871c0-3.469 2.813-6.282 6.282-6.282 3.469 0 6.282 2.813 6.282 6.282 0 3.469-2.813 6.282-6.282 6.282-3.469 0-6.282-2.813-6.282-6.282z" fill="#ffffff" data-fill-palette-color="accent"></path></g><g id="text-1"></g></svg></g></svg></g></svg></g><defs></defs></svg><rect width="395.52" height="126.63550646121804" fill="none" stroke="none" visibility="hidden"></rect></g></svg></g></svg>