<svg xmlns="http://www.w3.org/2000/svg" xmlns:svgjs="http://svgjs.dev/svgjs" xmlns:xlink="http://www.w3.org/1999/xlink" width="2000" height="1387" version="1.1" viewBox="0 0 2000 1387"><g transform="matrix(1,0,0,1,0.18408150822699554,0.5631678500287762)"><svg xmlns="http://www.w3.org/2000/svg" xmlns:xlink="http://www.w3.org/1999/xlink" width="2000" height="1387" data-background-color="#000000" preserveAspectRatio="xMidYMid meet" viewBox="0 0 356 247"><g id="tight-bounds" transform="matrix(1,0,0,1,-0.03256054161690258,-0.10007915888590446)"><svg width="356.065" height="247.2" viewBox="0 0 356.065 247.2"><rect width="356.065" height="247.2" fill="url(#01405675-6fe2-46f8-b0f1-e9101ebad890)" data-fill-palette-color="tertiary" mask="url(#7fd799b4-21c7-4ce4-ab36-6a55376660f1)"/><g><svg width="356.065" height="247.2" viewBox="0 0 356.065 247.2"><g><svg width="356.065" height="247.2" viewBox="0 0 356.065 247.2"><g id="textblocktransform"><svg id="textblock" width="356.065" height="247.2" viewBox="0 0 356.065 247.2"><g><svg width="356.065" height="247.2" viewBox="0 0 356.065 247.2"><path fill="url(#01405675-6fe2-46f8-b0f1-e9101ebad890)" d="M355.231 53.02C353.558 27.36 348.787 20.227 348.787 20.227 334.14-6.202 315.86-0.506 299.439 3.292 270.447 3.446 241.571 9.091 212.645 12.119 151.932 12.581 90.699 4.986 30.287 23.717 24.612 29.464-5.887 24.846 1.009 56.304 2.817 69.39 9.413 83.913 9.212 95.922 10.116 98.026 11.371 93.202 11.907 96.23 13.782 104.39 16.845 100.541 19.356 105.365 15.857 118.246 18.368 128.971 20.762 140.21 16.544 143.135 11.137 141.749 8.709 151.449 8.458 158.479 7.103 157.145 5.613 156.837 4.525 156.632 2.332 157.402 2.7 159.608 3.956 167.152-1.435 171.514 1.947 178.904-0.38 186.91 3.554 193.838 3.018 202.511 2.951 204.255 3.319 205.744 3.905 206.154 6.5 208.361 2.717 212.672 3.119 217.342 29.734 249.262 58.61 227.195 85.878 241.872 92.959 231.608 87.636 245.516 90.465 243.36 92.674 240.846 94.281 251.263 96.775 245.362 97.16 243.668 96.575 239.665 97.947 240.435 98.667 240.846 99.303 240.743 99.403 238.382 99.554 234.841 98.232 237.048 97.88 235.201 101.68 225.861 100.743 248.081 104.308 247.158 104.141 244.438 103.103 240.538 105.229 241.051 107.338 237.151 107.405 233.918 109.28 242.693 109.347 244.592 109.681 245.926 110.217 246.85 116.076 237.305 121.901 250.237 128.045 245.926 131.811 241.205 135.427 248.492 139.243 246.696 140.582 245.259 141.938 242.693 143.227 247.004 159.012 247.928 175.836 244.079 190.801 247.158 230.791 241.41 273.527 249.518 315.693 241.923 325.636 238.998 335.964 234.841 345.657 231.506 345.657 231.506 353.507 222.371 353.507 181.316S355.181 145.393 355.432 112.703C355.683 80.013 356.855 78.679 355.181 53.02Z" data-fill-palette-color="tertiary" opacity="1"/><g transform="matrix(1,0,0,1,55.76832,26.230666666666668)"><svg width="244.528" height="194.739" data-palette-color="#000000" viewBox="-1.65 -39 52.55 41.85"><path id="text-0" fill="#000" d="M12.2-16.15L12.2-16.15Q11.85-15.5 8-7.7L8-7.7Q5.45-2.5 2.88 0.18 0.3 2.85-1.05 2.85L-1.05 2.85Q-1.65 2.85-1.65 2.3L-1.65 2.3-1.5 1.7Q-0.95 0.2 1.93-5.35 4.8-10.9 7.3-15.2L7.3-15.2Q9.65-19.3 11.9-23.13 14.15-26.95 15.25-28.75L15.25-28.75 16.35-30.55Q16.45-30.7 16.6-30.95 16.75-31.2 17.28-31.85 17.8-32.5 18.35-32.98 18.9-33.45 19.65-33.85 20.4-34.25 21.1-34.25L21.1-34.25Q21.75-34.25 21.75-33.9L21.75-33.9Q21.75-33.45 21.15-32.6L21.15-32.6Q17.4-26.2 13.15-18.05L13.15-18.05Q13.1-17.95 13.1-17.85L13.1-17.85Q13.1-17.7 13.3-17.7L13.3-17.7Q16.45-17.7 19.13-18.9 21.8-20.1 23.48-22.03 25.15-23.95 26.08-26.15 27-28.35 27-30.5L27-30.5Q27-33.55 24.7-35.1 22.4-36.65 19.3-36.65L19.3-36.65Q16.95-36.65 14.73-35.95 12.5-35.25 10.83-33.55 9.15-31.85 9.15-29.5L9.15-29.5Q9.15-28.1 9.9-26.8L9.9-26.8Q10.15-26.3 10.15-26.1L10.15-26.1Q10.15-25.8 9.75-25.8L9.75-25.8Q9.65-25.8 9.35-25.9L9.35-25.9Q9.2-25.95 8.95-26.1 8.7-26.25 8.05-26.7 7.4-27.15 6.9-27.65 6.4-28.15 6-28.98 5.6-29.8 5.6-30.65L5.6-30.65Q5.6-33.75 9.43-35.85 13.25-37.95 18.1-37.95L18.1-37.95Q20.45-37.95 22.58-37.55 24.7-37.15 26.73-36.27 28.75-35.4 29.95-33.75 31.15-32.1 31.15-29.85L31.15-29.85Q31.15-26.5 29.43-23.83 27.7-21.15 24.93-19.58 22.15-18 19-17.18 15.85-16.35 12.65-16.35L12.65-16.35Q12.6-16.4 12.5-16.4L12.5-16.4Q12.3-16.4 12.2-16.15ZM40.85-12L40.85-12Q39.55-9.8 37.72-7.58 35.9-5.35 33.6-3.28 31.3-1.2 28.55 0.1 25.8 1.4 23.2 1.4L23.2 1.4Q19.05 1.4 19.05-4.8L19.05-4.8Q19.05-12.65 23.62-21.25 28.2-29.85 35.3-35.3L35.3-35.3Q35.75-35.65 36.52-36.13 37.3-36.6 39.42-37.43 41.55-38.25 43.3-38.25L43.3-38.25Q44.65-38.25 45.65-37.85L45.65-37.85Q45.75-37.8 45.9-37.8L45.9-37.8Q46.25-37.8 46.45-38.15L46.45-38.15Q47.5-39 49.8-39L49.8-39 50.2-39Q50.9-39 50.9-38.3L50.9-38.3Q50.9-37.2 49.27-34.8 47.65-32.4 46.25-30.75 44.85-29.1 43.75-27.9L43.75-27.9Q41.9-25.95 41.15-25.95L41.15-25.95Q40.8-25.95 40.8-26.45L40.8-26.45Q40.8-28.2 43.65-33.3L43.65-33.3Q43.7-33.4 44.15-34.1 44.6-34.8 44.8-35.27 45-35.75 45-36.15L45-36.15Q45-37 43.65-37L43.65-37Q42.55-37 41.22-36.3 39.9-35.6 39.15-34.9L39.15-34.9 38.35-34.2Q33.05-29.3 28.77-21.28 24.5-13.25 24.5-6.7L24.5-6.7Q24.5-1.95 27.5-1.95L27.5-1.95Q27.9-1.95 28.42-2.05 28.95-2.15 30.22-2.73 31.5-3.3 32.72-4.33 33.95-5.35 35.57-7.48 37.2-9.6 38.65-12.45L38.65-12.45Q39.05-13.25 39.7-14.73 40.35-16.2 40.72-16.9 41.1-17.6 41.35-17.6L41.35-17.6Q41.7-17.6 41.9-16.98 42.1-16.35 42.1-15.9L42.1-15.9Q42.1-14.05 40.85-12Z" class="wordmark-text-0" data-fill-palette-color="quaternary" opacity="1" transform="matrix(1,0,0,1,0,0)"/></svg></g></svg></g></svg></g></svg></g></svg></g><mask id="7fd799b4-21c7-4ce4-ab36-6a55376660f1"><g id="SvgjsG2681"><svg width="356.065" height="247.2" viewBox="0 0 356.065 247.2"><g><svg width="356.065" height="247.2" viewBox="0 0 356.065 247.2"><g><svg width="356.065" height="247.2" viewBox="0 0 356.065 247.2"><g id="SvgjsG2680"><svg id="SvgjsSvg2679" width="356.065" height="247.2" viewBox="0 0 356.065 247.2"><g><svg width="356.065" height="247.2" viewBox="0 0 356.065 247.2"><path fill="#fff" d="M355.231 53.02C353.558 27.36 348.787 20.227 348.787 20.227 334.14-6.202 315.86-0.506 299.439 3.292 270.447 3.446 241.571 9.091 212.645 12.119 151.932 12.581 90.699 4.986 30.287 23.717 24.612 29.464-5.887 24.846 1.009 56.304 2.817 69.39 9.413 83.913 9.212 95.922 10.116 98.026 11.371 93.202 11.907 96.23 13.782 104.39 16.845 100.541 19.356 105.365 15.857 118.246 18.368 128.971 20.762 140.21 16.544 143.135 11.137 141.749 8.709 151.449 8.458 158.479 7.103 157.145 5.613 156.837 4.525 156.632 2.332 157.402 2.7 159.608 3.956 167.152-1.435 171.514 1.947 178.904-0.38 186.91 3.554 193.838 3.018 202.511 2.951 204.255 3.319 205.744 3.905 206.154 6.5 208.361 2.717 212.672 3.119 217.342 29.734 249.262 58.61 227.195 85.878 241.872 92.959 231.608 87.636 245.516 90.465 243.36 92.674 240.846 94.281 251.263 96.775 245.362 97.16 243.668 96.575 239.665 97.947 240.435 98.667 240.846 99.303 240.743 99.403 238.382 99.554 234.841 98.232 237.048 97.88 235.201 101.68 225.861 100.743 248.081 104.308 247.158 104.141 244.438 103.103 240.538 105.229 241.051 107.338 237.151 107.405 233.918 109.28 242.693 109.347 244.592 109.681 245.926 110.217 246.85 116.076 237.305 121.901 250.237 128.045 245.926 131.811 241.205 135.427 248.492 139.243 246.696 140.582 245.259 141.938 242.693 143.227 247.004 159.012 247.928 175.836 244.079 190.801 247.158 230.791 241.41 273.527 249.518 315.693 241.923 325.636 238.998 335.964 234.841 345.657 231.506 345.657 231.506 353.507 222.371 353.507 181.316S355.181 145.393 355.432 112.703C355.683 80.013 356.855 78.679 355.181 53.02Z" opacity="1"/><g transform="matrix(1,0,0,1,55.76832,26.230666666666668)"><svg width="244.528" height="194.739" data-palette-color="#000000" viewBox="-1.65 -39 52.55 41.85"><path id="SvgjsPath2678" fill="#000" d="M12.2-16.15L12.2-16.15Q11.85-15.5 8-7.7L8-7.7Q5.45-2.5 2.88 0.18 0.3 2.85-1.05 2.85L-1.05 2.85Q-1.65 2.85-1.65 2.3L-1.65 2.3-1.5 1.7Q-0.95 0.2 1.93-5.35 4.8-10.9 7.3-15.2L7.3-15.2Q9.65-19.3 11.9-23.13 14.15-26.95 15.25-28.75L15.25-28.75 16.35-30.55Q16.45-30.7 16.6-30.95 16.75-31.2 17.28-31.85 17.8-32.5 18.35-32.98 18.9-33.45 19.65-33.85 20.4-34.25 21.1-34.25L21.1-34.25Q21.75-34.25 21.75-33.9L21.75-33.9Q21.75-33.45 21.15-32.6L21.15-32.6Q17.4-26.2 13.15-18.05L13.15-18.05Q13.1-17.95 13.1-17.85L13.1-17.85Q13.1-17.7 13.3-17.7L13.3-17.7Q16.45-17.7 19.13-18.9 21.8-20.1 23.48-22.03 25.15-23.95 26.08-26.15 27-28.35 27-30.5L27-30.5Q27-33.55 24.7-35.1 22.4-36.65 19.3-36.65L19.3-36.65Q16.95-36.65 14.73-35.95 12.5-35.25 10.83-33.55 9.15-31.85 9.15-29.5L9.15-29.5Q9.15-28.1 9.9-26.8L9.9-26.8Q10.15-26.3 10.15-26.1L10.15-26.1Q10.15-25.8 9.75-25.8L9.75-25.8Q9.65-25.8 9.35-25.9L9.35-25.9Q9.2-25.95 8.95-26.1 8.7-26.25 8.05-26.7 7.4-27.15 6.9-27.65 6.4-28.15 6-28.98 5.6-29.8 5.6-30.65L5.6-30.65Q5.6-33.75 9.43-35.85 13.25-37.95 18.1-37.95L18.1-37.95Q20.45-37.95 22.58-37.55 24.7-37.15 26.73-36.27 28.75-35.4 29.95-33.75 31.15-32.1 31.15-29.85L31.15-29.85Q31.15-26.5 29.43-23.83 27.7-21.15 24.93-19.58 22.15-18 19-17.18 15.85-16.35 12.65-16.35L12.65-16.35Q12.6-16.4 12.5-16.4L12.5-16.4Q12.3-16.4 12.2-16.15ZM40.85-12L40.85-12Q39.55-9.8 37.72-7.58 35.9-5.35 33.6-3.28 31.3-1.2 28.55 0.1 25.8 1.4 23.2 1.4L23.2 1.4Q19.05 1.4 19.05-4.8L19.05-4.8Q19.05-12.65 23.62-21.25 28.2-29.85 35.3-35.3L35.3-35.3Q35.75-35.65 36.52-36.13 37.3-36.6 39.42-37.43 41.55-38.25 43.3-38.25L43.3-38.25Q44.65-38.25 45.65-37.85L45.65-37.85Q45.75-37.8 45.9-37.8L45.9-37.8Q46.25-37.8 46.45-38.15L46.45-38.15Q47.5-39 49.8-39L49.8-39 50.2-39Q50.9-39 50.9-38.3L50.9-38.3Q50.9-37.2 49.27-34.8 47.65-32.4 46.25-30.75 44.85-29.1 43.75-27.9L43.75-27.9Q41.9-25.95 41.15-25.95L41.15-25.95Q40.8-25.95 40.8-26.45L40.8-26.45Q40.8-28.2 43.65-33.3L43.65-33.3Q43.7-33.4 44.15-34.1 44.6-34.8 44.8-35.27 45-35.75 45-36.15L45-36.15Q45-37 43.65-37L43.65-37Q42.55-37 41.22-36.3 39.9-35.6 39.15-34.9L39.15-34.9 38.35-34.2Q33.05-29.3 28.77-21.28 24.5-13.25 24.5-6.7L24.5-6.7Q24.5-1.95 27.5-1.95L27.5-1.95Q27.9-1.95 28.42-2.05 28.95-2.15 30.22-2.73 31.5-3.3 32.72-4.33 33.95-5.35 35.57-7.48 37.2-9.6 38.65-12.45L38.65-12.45Q39.05-13.25 39.7-14.73 40.35-16.2 40.72-16.9 41.1-17.6 41.35-17.6L41.35-17.6Q41.7-17.6 41.9-16.98 42.1-16.35 42.1-15.9L42.1-15.9Q42.1-14.05 40.85-12Z" class="wordmark-text-0" opacity="1" transform="matrix(1,0,0,1,0,0)"/></svg></g></svg></g></svg></g></svg></g></svg></g></svg><rect width="356.065" height="247.2" fill="#000" stroke="none" visibility="hidden"/></g></mask><linearGradient id="01405675-6fe2-46f8-b0f1-e9101ebad890" x1=".054" x2=".941" y1=".5" y2=".5"><stop offset="0" stop-color="#0f3054"/><stop offset=".498" stop-color="#3b8dcb"/><stop offset="1" stop-color="#0f3054"/></linearGradient></svg><rect width="356.065" height="247.2" fill="none" stroke="none" visibility="hidden"/></g></svg></g></svg>